<svg width="481" height="706" viewBox="0 0 481 706" fill="none" xmlns="http://www.w3.org/2000/svg">
        <circle cx="2.53934" cy="3.39811" r="2.5" transform="rotate(0.908963 2.53934 3.39811)" fill="#258AFF" fill-opacity="0.2"/>
        <circle cx="2.6298" cy="53.398" r="2.5" transform="rotate(0.908963 2.6298 53.398)" fill="#258AFF" fill-opacity="0.2"/>
        <circle cx="2.72019" cy="103.398" r="2.5" transform="rotate(0.908963 2.72019 103.398)" fill="#258AFF" fill-opacity="0.2"/>
        <circle cx="2.81064" cy="153.398" r="2.5" transform="rotate(0.908963 2.81064 153.398)" fill="#258AFF" fill-opacity="0.2"/>
        <circle cx="2.90091" cy="203.398" r="2.5" transform="rotate(0.908963 2.90091 203.398)" fill="#258AFF" fill-opacity="0.2"/>
        <circle cx="2.99131" cy="253.398" r="2.5" transform="rotate(0.908963 2.99131 253.398)" fill="#258AFF" fill-opacity="0.2"/>
        <circle cx="3.08176" cy="303.397" r="2.5" transform="rotate(0.908963 3.08176 303.397)" fill="#258AFF" fill-opacity="0.2"/>
        <circle cx="2.80698" cy="527.62" r="2.5" transform="rotate(0.908963 2.80698 527.62)" fill="#258AFF" fill-opacity="0.2"/>
        <circle cx="3.17209" cy="353.397" r="2.5" transform="rotate(0.908963 3.17209 353.397)" fill="#258AFF" fill-opacity="0.2"/>
        <circle cx="2.89731" cy="577.62" r="2.5" transform="rotate(0.908963 2.89731 577.62)" fill="#258AFF" fill-opacity="0.2"/>
        <circle cx="3.26255" cy="403.397" r="2.5" transform="rotate(0.908963 3.26255 403.397)" fill="#258AFF" fill-opacity="0.2"/>
        <circle cx="2.98777" cy="627.62" r="2.5" transform="rotate(0.908963 2.98777 627.62)" fill="#258AFF" fill-opacity="0.2"/>
        <circle cx="3.35288" cy="453.397" r="2.5" transform="rotate(0.908963 3.35288 453.397)" fill="#258AFF" fill-opacity="0.2"/>
        <circle cx="3.0781" cy="677.62" r="2.5" transform="rotate(0.908963 3.0781 677.62)" fill="#258AFF" fill-opacity="0.2"/>
        <circle cx="2.58463" cy="28.398" r="2.5" transform="rotate(0.908963 2.58463 28.398)" fill="#258AFF" fill-opacity="0.2"/>
        <circle cx="2.67508" cy="78.3979" r="2.5" transform="rotate(0.908963 2.67508 78.3979)" fill="#258AFF" fill-opacity="0.2"/>
        <circle cx="2.76542" cy="128.398" r="2.5" transform="rotate(0.908963 2.76542 128.398)" fill="#258AFF" fill-opacity="0.2"/>
        <circle cx="2.85569" cy="178.398" r="2.5" transform="rotate(0.908963 2.85569 178.398)" fill="#258AFF" fill-opacity="0.2"/>
        <circle cx="2.94614" cy="228.398" r="2.5" transform="rotate(0.908963 2.94614 228.398)" fill="#258AFF" fill-opacity="0.2"/>
        <circle cx="3.03647" cy="278.398" r="2.5" transform="rotate(0.908963 3.03647 278.398)" fill="#258AFF" fill-opacity="0.2"/>
        <circle cx="2.76169" cy="502.62" r="2.5" transform="rotate(0.908963 2.76169 502.62)" fill="#258AFF" fill-opacity="0.2"/>
        <circle cx="3.12693" cy="328.397" r="2.5" transform="rotate(0.908963 3.12693 328.397)" fill="#258AFF" fill-opacity="0.2"/>
        <circle cx="2.85215" cy="552.62" r="2.5" transform="rotate(0.908963 2.85215 552.62)" fill="#258AFF" fill-opacity="0.2"/>
        <circle cx="3.21726" cy="378.397" r="2.5" transform="rotate(0.908963 3.21726 378.397)" fill="#258AFF" fill-opacity="0.2"/>
        <circle cx="2.94248" cy="602.62" r="2.5" transform="rotate(0.908963 2.94248 602.62)" fill="#258AFF" fill-opacity="0.2"/>
        <circle cx="3.30765" cy="428.397" r="2.5" transform="rotate(0.908963 3.30765 428.397)" fill="#258AFF" fill-opacity="0.2"/>
        <circle cx="3.03287" cy="652.62" r="2.5" transform="rotate(0.908963 3.03287 652.62)" fill="#258AFF" fill-opacity="0.2"/>
        <circle cx="3.39811" cy="478.397" r="2.5" transform="rotate(0.908963 3.39811 478.397)" fill="#258AFF" fill-opacity="0.2"/>
        <circle cx="3.12333" cy="702.62" r="2.5" transform="rotate(0.908963 3.12333 702.62)" fill="#258AFF" fill-opacity="0.2"/>
        <circle cx="27.5394" cy="3.35288" r="2.5" transform="rotate(0.908963 27.5394 3.35288)" fill="#258AFF" fill-opacity="0.2"/>
        <circle cx="27.6297" cy="53.3528" r="2.5" transform="rotate(0.908963 27.6297 53.3528)" fill="#258AFF" fill-opacity="0.2"/>
        <circle cx="27.7201" cy="103.353" r="2.5" transform="rotate(0.908963 27.7201 103.353)" fill="#258AFF" fill-opacity="0.2"/>
        <circle cx="27.8106" cy="153.353" r="2.5" transform="rotate(0.908963 27.8106 153.353)" fill="#258AFF" fill-opacity="0.2"/>
        <circle cx="27.9009" cy="203.352" r="2.5" transform="rotate(0.908963 27.9009 203.352)" fill="#258AFF" fill-opacity="0.2"/>
        <circle cx="27.9912" cy="253.352" r="2.5" transform="rotate(0.908963 27.9912 253.352)" fill="#258AFF" fill-opacity="0.2"/>
        <circle cx="28.0817" cy="303.352" r="2.5" transform="rotate(0.908963 28.0817 303.352)" fill="#258AFF" fill-opacity="0.2"/>
        <circle cx="27.8069" cy="527.575" r="2.5" transform="rotate(0.908963 27.8069 527.575)" fill="#258AFF" fill-opacity="0.2"/>
        <circle cx="28.1721" cy="353.352" r="2.5" transform="rotate(0.908963 28.1721 353.352)" fill="#258AFF" fill-opacity="0.2"/>
        <circle cx="27.8973" cy="577.575" r="2.5" transform="rotate(0.908963 27.8973 577.575)" fill="#258AFF" fill-opacity="0.2"/>
        <circle cx="28.2625" cy="403.352" r="2.5" transform="rotate(0.908963 28.2625 403.352)" fill="#258AFF" fill-opacity="0.2"/>
        <circle cx="27.9878" cy="627.575" r="2.5" transform="rotate(0.908963 27.9878 627.575)" fill="#258AFF" fill-opacity="0.2"/>
        <circle cx="28.3529" cy="453.352" r="2.5" transform="rotate(0.908963 28.3529 453.352)" fill="#258AFF" fill-opacity="0.2"/>
        <circle cx="28.0781" cy="677.575" r="2.5" transform="rotate(0.908963 28.0781 677.575)" fill="#258AFF" fill-opacity="0.2"/>
        <circle cx="27.5846" cy="28.3529" r="2.5" transform="rotate(0.908963 27.5846 28.3529)" fill="#258AFF" fill-opacity="0.2"/>
        <circle cx="27.675" cy="78.3527" r="2.5" transform="rotate(0.908963 27.675 78.3527)" fill="#258AFF" fill-opacity="0.2"/>
        <circle cx="27.7654" cy="128.353" r="2.5" transform="rotate(0.908963 27.7654 128.353)" fill="#258AFF" fill-opacity="0.2"/>
        <circle cx="27.8557" cy="178.353" r="2.5" transform="rotate(0.908963 27.8557 178.353)" fill="#258AFF" fill-opacity="0.2"/>
        <circle cx="27.9461" cy="228.352" r="2.5" transform="rotate(0.908963 27.9461 228.352)" fill="#258AFF" fill-opacity="0.2"/>
        <circle cx="28.0364" cy="278.352" r="2.5" transform="rotate(0.908963 28.0364 278.352)" fill="#258AFF" fill-opacity="0.2"/>
        <circle cx="27.7616" cy="502.575" r="2.5" transform="rotate(0.908963 27.7616 502.575)" fill="#258AFF" fill-opacity="0.2"/>
        <circle cx="28.127" cy="328.352" r="2.5" transform="rotate(0.908963 28.127 328.352)" fill="#258AFF" fill-opacity="0.2"/>
        <circle cx="27.8522" cy="552.575" r="2.5" transform="rotate(0.908963 27.8522 552.575)" fill="#258AFF" fill-opacity="0.2"/>
        <circle cx="28.2173" cy="378.352" r="2.5" transform="rotate(0.908963 28.2173 378.352)" fill="#258AFF" fill-opacity="0.2"/>
        <circle cx="27.9425" cy="602.575" r="2.5" transform="rotate(0.908963 27.9425 602.575)" fill="#258AFF" fill-opacity="0.2"/>
        <circle cx="28.3077" cy="428.352" r="2.5" transform="rotate(0.908963 28.3077 428.352)" fill="#258AFF" fill-opacity="0.2"/>
        <circle cx="28.0329" cy="652.575" r="2.5" transform="rotate(0.908963 28.0329 652.575)" fill="#258AFF" fill-opacity="0.2"/>
        <circle cx="28.3981" cy="478.352" r="2.5" transform="rotate(0.908963 28.3981 478.352)" fill="#258AFF" fill-opacity="0.2"/>
        <circle cx="28.1233" cy="702.575" r="2.5" transform="rotate(0.908963 28.1233 702.575)" fill="#258AFF" fill-opacity="0.2"/>
        <circle cx="52.5393" cy="3.30766" r="2.5" transform="rotate(0.908963 52.5393 3.30766)" fill="#258AFF" fill-opacity="0.2"/>
        <circle cx="52.6297" cy="53.3075" r="2.5" transform="rotate(0.908963 52.6297 53.3075)" fill="#258AFF" fill-opacity="0.2"/>
        <circle cx="52.7201" cy="103.308" r="2.5" transform="rotate(0.908963 52.7201 103.308)" fill="#258AFF" fill-opacity="0.2"/>
        <circle cx="52.8105" cy="153.307" r="2.5" transform="rotate(0.908963 52.8105 153.307)" fill="#258AFF" fill-opacity="0.2"/>
        <circle cx="52.9009" cy="203.307" r="2.5" transform="rotate(0.908963 52.9009 203.307)" fill="#258AFF" fill-opacity="0.2"/>
        <circle cx="52.9912" cy="253.307" r="2.5" transform="rotate(0.908963 52.9912 253.307)" fill="#258AFF" fill-opacity="0.2"/>
        <circle cx="53.0817" cy="303.307" r="2.5" transform="rotate(0.908963 53.0817 303.307)" fill="#258AFF" fill-opacity="0.2"/>
        <circle cx="52.8069" cy="527.53" r="2.5" transform="rotate(0.908963 52.8069 527.53)" fill="#258AFF" fill-opacity="0.2"/>
        <circle cx="53.172" cy="353.307" r="2.5" transform="rotate(0.908963 53.172 353.307)" fill="#258AFF" fill-opacity="0.2"/>
        <circle cx="52.8973" cy="577.53" r="2.5" transform="rotate(0.908963 52.8973 577.53)" fill="#258AFF" fill-opacity="0.2"/>
        <circle cx="53.2624" cy="403.307" r="2.5" transform="rotate(0.908963 53.2624 403.307)" fill="#258AFF" fill-opacity="0.2"/>
        <circle cx="52.9876" cy="627.53" r="2.5" transform="rotate(0.908963 52.9876 627.53)" fill="#258AFF" fill-opacity="0.2"/>
        <circle cx="53.3528" cy="453.307" r="2.5" transform="rotate(0.908963 53.3528 453.307)" fill="#258AFF" fill-opacity="0.2"/>
        <circle cx="53.078" cy="677.53" r="2.5" transform="rotate(0.908963 53.078 677.53)" fill="#258AFF" fill-opacity="0.2"/>
        <circle cx="52.5846" cy="28.3076" r="2.5" transform="rotate(0.908963 52.5846 28.3076)" fill="#258AFF" fill-opacity="0.2"/>
        <circle cx="52.6749" cy="78.3075" r="2.5" transform="rotate(0.908963 52.6749 78.3075)" fill="#258AFF" fill-opacity="0.2"/>
        <circle cx="52.7653" cy="128.307" r="2.5" transform="rotate(0.908963 52.7653 128.307)" fill="#258AFF" fill-opacity="0.2"/>
        <circle cx="52.8557" cy="178.307" r="2.5" transform="rotate(0.908963 52.8557 178.307)" fill="#258AFF" fill-opacity="0.2"/>
        <circle cx="52.9461" cy="228.307" r="2.5" transform="rotate(0.908963 52.9461 228.307)" fill="#258AFF" fill-opacity="0.2"/>
        <circle cx="53.0365" cy="278.307" r="2.5" transform="rotate(0.908963 53.0365 278.307)" fill="#258AFF" fill-opacity="0.2"/>
        <circle cx="52.7617" cy="502.53" r="2.5" transform="rotate(0.908963 52.7617 502.53)" fill="#258AFF" fill-opacity="0.2"/>
        <circle cx="53.1269" cy="328.307" r="2.5" transform="rotate(0.908963 53.1269 328.307)" fill="#258AFF" fill-opacity="0.2"/>
        <circle cx="52.8521" cy="552.53" r="2.5" transform="rotate(0.908963 52.8521 552.53)" fill="#258AFF" fill-opacity="0.2"/>
        <circle cx="53.2173" cy="378.307" r="2.5" transform="rotate(0.908963 53.2173 378.307)" fill="#258AFF" fill-opacity="0.2"/>
        <circle cx="52.9425" cy="602.53" r="2.5" transform="rotate(0.908963 52.9425 602.53)" fill="#258AFF" fill-opacity="0.2"/>
        <circle cx="53.3076" cy="428.307" r="2.5" transform="rotate(0.908963 53.3076 428.307)" fill="#258AFF" fill-opacity="0.2"/>
        <circle cx="53.0328" cy="652.53" r="2.5" transform="rotate(0.908963 53.0328 652.53)" fill="#258AFF" fill-opacity="0.2"/>
        <circle cx="53.398" cy="478.307" r="2.5" transform="rotate(0.908963 53.398 478.307)" fill="#258AFF" fill-opacity="0.2"/>
        <circle cx="53.1232" cy="702.53" r="2.5" transform="rotate(0.908963 53.1232 702.53)" fill="#258AFF" fill-opacity="0.2"/>
        <circle cx="77.5393" cy="3.26249" r="2.5" transform="rotate(0.908963 77.5393 3.26249)" fill="#258AFF" fill-opacity="0.2"/>
        <circle cx="77.6297" cy="53.2624" r="2.5" transform="rotate(0.908963 77.6297 53.2624)" fill="#258AFF" fill-opacity="0.2"/>
        <circle cx="77.72" cy="103.262" r="2.5" transform="rotate(0.908963 77.72 103.262)" fill="#258AFF" fill-opacity="0.2"/>
        <circle cx="77.8105" cy="153.262" r="2.5" transform="rotate(0.908963 77.8105 153.262)" fill="#258AFF" fill-opacity="0.2"/>
        <circle cx="77.9009" cy="203.262" r="2.5" transform="rotate(0.908963 77.9009 203.262)" fill="#258AFF" fill-opacity="0.2"/>
        <circle cx="77.9911" cy="253.262" r="2.5" transform="rotate(0.908963 77.9911 253.262)" fill="#258AFF" fill-opacity="0.2"/>
        <circle cx="78.0816" cy="303.262" r="2.5" transform="rotate(0.908963 78.0816 303.262)" fill="#258AFF" fill-opacity="0.2"/>
        <circle cx="77.8068" cy="527.485" r="2.5" transform="rotate(0.908963 77.8068 527.485)" fill="#258AFF" fill-opacity="0.2"/>
        <circle cx="78.172" cy="353.262" r="2.5" transform="rotate(0.908963 78.172 353.262)" fill="#258AFF" fill-opacity="0.2"/>
        <circle cx="77.8972" cy="577.485" r="2.5" transform="rotate(0.908963 77.8972 577.485)" fill="#258AFF" fill-opacity="0.2"/>
        <circle cx="78.2624" cy="403.262" r="2.5" transform="rotate(0.908963 78.2624 403.262)" fill="#258AFF" fill-opacity="0.2"/>
        <circle cx="77.9876" cy="627.485" r="2.5" transform="rotate(0.908963 77.9876 627.485)" fill="#258AFF" fill-opacity="0.2"/>
        <circle cx="78.3528" cy="453.262" r="2.5" transform="rotate(0.908963 78.3528 453.262)" fill="#258AFF" fill-opacity="0.2"/>
        <circle cx="78.078" cy="677.484" r="2.5" transform="rotate(0.908963 78.078 677.484)" fill="#258AFF" fill-opacity="0.2"/>
        <circle cx="77.5845" cy="28.2625" r="2.5" transform="rotate(0.908963 77.5845 28.2625)" fill="#258AFF" fill-opacity="0.2"/>
        <circle cx="77.6748" cy="78.2624" r="2.5" transform="rotate(0.908963 77.6748 78.2624)" fill="#258AFF" fill-opacity="0.2"/>
        <circle cx="77.7652" cy="128.262" r="2.5" transform="rotate(0.908963 77.7652 128.262)" fill="#258AFF" fill-opacity="0.2"/>
        <circle cx="77.8556" cy="178.262" r="2.5" transform="rotate(0.908963 77.8556 178.262)" fill="#258AFF" fill-opacity="0.2"/>
        <circle cx="77.9461" cy="228.262" r="2.5" transform="rotate(0.908963 77.9461 228.262)" fill="#258AFF" fill-opacity="0.2"/>
        <circle cx="78.0364" cy="278.262" r="2.5" transform="rotate(0.908963 78.0364 278.262)" fill="#258AFF" fill-opacity="0.2"/>
        <circle cx="77.7616" cy="502.485" r="2.5" transform="rotate(0.908963 77.7616 502.485)" fill="#258AFF" fill-opacity="0.2"/>
        <circle cx="78.1269" cy="328.262" r="2.5" transform="rotate(0.908963 78.1269 328.262)" fill="#258AFF" fill-opacity="0.2"/>
        <circle cx="77.8521" cy="552.485" r="2.5" transform="rotate(0.908963 77.8521 552.485)" fill="#258AFF" fill-opacity="0.2"/>
        <circle cx="78.2172" cy="378.262" r="2.5" transform="rotate(0.908963 78.2172 378.262)" fill="#258AFF" fill-opacity="0.2"/>
        <circle cx="77.9424" cy="602.485" r="2.5" transform="rotate(0.908963 77.9424 602.485)" fill="#258AFF" fill-opacity="0.2"/>
        <circle cx="78.3075" cy="428.262" r="2.5" transform="rotate(0.908963 78.3075 428.262)" fill="#258AFF" fill-opacity="0.2"/>
        <circle cx="78.0328" cy="652.485" r="2.5" transform="rotate(0.908963 78.0328 652.485)" fill="#258AFF" fill-opacity="0.2"/>
        <circle cx="78.398" cy="478.262" r="2.5" transform="rotate(0.908963 78.398 478.262)" fill="#258AFF" fill-opacity="0.2"/>
        <circle cx="78.1232" cy="702.484" r="2.5" transform="rotate(0.908963 78.1232 702.484)" fill="#258AFF" fill-opacity="0.2"/>
        <circle cx="102.539" cy="3.21726" r="2.5" transform="rotate(0.908963 102.539 3.21726)" fill="#258AFF" fill-opacity="0.2"/>
        <circle cx="102.63" cy="53.2172" r="2.5" transform="rotate(0.908963 102.63 53.2172)" fill="#258AFF" fill-opacity="0.2"/>
        <circle cx="102.72" cy="103.217" r="2.5" transform="rotate(0.908963 102.72 103.217)" fill="#258AFF" fill-opacity="0.2"/>
        <circle cx="102.81" cy="153.217" r="2.5" transform="rotate(0.908963 102.81 153.217)" fill="#258AFF" fill-opacity="0.2"/>
        <circle cx="102.901" cy="203.217" r="2.5" transform="rotate(0.908963 102.901 203.217)" fill="#258AFF" fill-opacity="0.2"/>
        <circle cx="102.991" cy="253.217" r="2.5" transform="rotate(0.908963 102.991 253.217)" fill="#258AFF" fill-opacity="0.2"/>
        <circle cx="103.082" cy="303.217" r="2.5" transform="rotate(0.908963 103.082 303.217)" fill="#258AFF" fill-opacity="0.2"/>
        <circle cx="102.807" cy="527.439" r="2.5" transform="rotate(0.908963 102.807 527.439)" fill="#258AFF" fill-opacity="0.2"/>
        <circle cx="103.172" cy="353.217" r="2.5" transform="rotate(0.908963 103.172 353.217)" fill="#258AFF" fill-opacity="0.2"/>
        <circle cx="102.897" cy="577.439" r="2.5" transform="rotate(0.908963 102.897 577.439)" fill="#258AFF" fill-opacity="0.2"/>
        <circle cx="103.262" cy="403.217" r="2.5" transform="rotate(0.908963 103.262 403.217)" fill="#258AFF" fill-opacity="0.2"/>
        <circle cx="102.988" cy="627.439" r="2.5" transform="rotate(0.908963 102.988 627.439)" fill="#258AFF" fill-opacity="0.2"/>
        <circle cx="103.353" cy="453.217" r="2.5" transform="rotate(0.908963 103.353 453.217)" fill="#258AFF" fill-opacity="0.2"/>
        <circle cx="103.078" cy="677.439" r="2.5" transform="rotate(0.908963 103.078 677.439)" fill="#258AFF" fill-opacity="0.2"/>
        <circle cx="102.584" cy="28.2172" r="2.5" transform="rotate(0.908963 102.584 28.2172)" fill="#258AFF" fill-opacity="0.2"/>
        <circle cx="102.675" cy="78.2171" r="2.5" transform="rotate(0.908963 102.675 78.2171)" fill="#258AFF" fill-opacity="0.2"/>
        <circle cx="102.765" cy="128.217" r="2.5" transform="rotate(0.908963 102.765 128.217)" fill="#258AFF" fill-opacity="0.2"/>
        <circle cx="102.856" cy="178.217" r="2.5" transform="rotate(0.908963 102.856 178.217)" fill="#258AFF" fill-opacity="0.2"/>
        <circle cx="102.946" cy="228.217" r="2.5" transform="rotate(0.908963 102.946 228.217)" fill="#258AFF" fill-opacity="0.2"/>
        <circle cx="103.036" cy="278.217" r="2.5" transform="rotate(0.908963 103.036 278.217)" fill="#258AFF" fill-opacity="0.2"/>
        <circle cx="102.762" cy="502.44" r="2.5" transform="rotate(0.908963 102.762 502.44)" fill="#258AFF" fill-opacity="0.2"/>
        <circle cx="103.127" cy="328.217" r="2.5" transform="rotate(0.908963 103.127 328.217)" fill="#258AFF" fill-opacity="0.2"/>
        <circle cx="102.852" cy="552.439" r="2.5" transform="rotate(0.908963 102.852 552.439)" fill="#258AFF" fill-opacity="0.2"/>
        <circle cx="103.217" cy="378.217" r="2.5" transform="rotate(0.908963 103.217 378.217)" fill="#258AFF" fill-opacity="0.2"/>
        <circle cx="102.942" cy="602.439" r="2.5" transform="rotate(0.908963 102.942 602.439)" fill="#258AFF" fill-opacity="0.2"/>
        <circle cx="103.308" cy="428.217" r="2.5" transform="rotate(0.908963 103.308 428.217)" fill="#258AFF" fill-opacity="0.2"/>
        <circle cx="103.033" cy="652.439" r="2.5" transform="rotate(0.908963 103.033 652.439)" fill="#258AFF" fill-opacity="0.2"/>
        <circle cx="103.398" cy="478.216" r="2.5" transform="rotate(0.908963 103.398 478.216)" fill="#258AFF" fill-opacity="0.2"/>
        <circle cx="103.123" cy="702.439" r="2.5" transform="rotate(0.908963 103.123 702.439)" fill="#258AFF" fill-opacity="0.2"/>
        <circle cx="127.539" cy="3.17204" r="2.5" transform="rotate(0.908963 127.539 3.17204)" fill="#258AFF" fill-opacity="0.2"/>
        <circle cx="127.63" cy="53.172" r="2.5" transform="rotate(0.908963 127.63 53.172)" fill="#258AFF" fill-opacity="0.2"/>
        <circle cx="127.72" cy="103.172" r="2.5" transform="rotate(0.908963 127.72 103.172)" fill="#258AFF" fill-opacity="0.2"/>
        <circle cx="127.81" cy="153.172" r="2.5" transform="rotate(0.908963 127.81 153.172)" fill="#258AFF" fill-opacity="0.2"/>
        <circle cx="127.901" cy="203.172" r="2.5" transform="rotate(0.908963 127.901 203.172)" fill="#258AFF" fill-opacity="0.2"/>
        <circle cx="127.991" cy="253.172" r="2.5" transform="rotate(0.908963 127.991 253.172)" fill="#258AFF" fill-opacity="0.2"/>
        <circle cx="128.082" cy="303.172" r="2.5" transform="rotate(0.908963 128.082 303.172)" fill="#258AFF" fill-opacity="0.2"/>
        <circle cx="127.807" cy="527.394" r="2.5" transform="rotate(0.908963 127.807 527.394)" fill="#258AFF" fill-opacity="0.2"/>
        <circle cx="128.172" cy="353.172" r="2.5" transform="rotate(0.908963 128.172 353.172)" fill="#258AFF" fill-opacity="0.2"/>
        <circle cx="127.897" cy="577.394" r="2.5" transform="rotate(0.908963 127.897 577.394)" fill="#258AFF" fill-opacity="0.2"/>
        <circle cx="128.262" cy="403.171" r="2.5" transform="rotate(0.908963 128.262 403.171)" fill="#258AFF" fill-opacity="0.2"/>
        <circle cx="127.988" cy="627.394" r="2.5" transform="rotate(0.908963 127.988 627.394)" fill="#258AFF" fill-opacity="0.2"/>
        <circle cx="128.353" cy="453.171" r="2.5" transform="rotate(0.908963 128.353 453.171)" fill="#258AFF" fill-opacity="0.2"/>
        <circle cx="128.078" cy="677.394" r="2.5" transform="rotate(0.908963 128.078 677.394)" fill="#258AFF" fill-opacity="0.2"/>
        <circle cx="127.584" cy="28.1721" r="2.5" transform="rotate(0.908963 127.584 28.1721)" fill="#258AFF" fill-opacity="0.2"/>
        <circle cx="127.675" cy="78.172" r="2.5" transform="rotate(0.908963 127.675 78.172)" fill="#258AFF" fill-opacity="0.2"/>
        <circle cx="127.765" cy="128.172" r="2.5" transform="rotate(0.908963 127.765 128.172)" fill="#258AFF" fill-opacity="0.2"/>
        <circle cx="127.856" cy="178.172" r="2.5" transform="rotate(0.908963 127.856 178.172)" fill="#258AFF" fill-opacity="0.2"/>
        <circle cx="127.946" cy="228.172" r="2.5" transform="rotate(0.908963 127.946 228.172)" fill="#258AFF" fill-opacity="0.2"/>
        <circle cx="128.036" cy="278.172" r="2.5" transform="rotate(0.908963 128.036 278.172)" fill="#258AFF" fill-opacity="0.2"/>
        <circle cx="127.762" cy="502.394" r="2.5" transform="rotate(0.908963 127.762 502.394)" fill="#258AFF" fill-opacity="0.2"/>
        <circle cx="128.127" cy="328.172" r="2.5" transform="rotate(0.908963 128.127 328.172)" fill="#258AFF" fill-opacity="0.2"/>
        <circle cx="127.852" cy="552.394" r="2.5" transform="rotate(0.908963 127.852 552.394)" fill="#258AFF" fill-opacity="0.2"/>
        <circle cx="128.217" cy="378.172" r="2.5" transform="rotate(0.908963 128.217 378.172)" fill="#258AFF" fill-opacity="0.2"/>
        <circle cx="127.942" cy="602.394" r="2.5" transform="rotate(0.908963 127.942 602.394)" fill="#258AFF" fill-opacity="0.2"/>
        <circle cx="128.308" cy="428.171" r="2.5" transform="rotate(0.908963 128.308 428.171)" fill="#258AFF" fill-opacity="0.2"/>
        <circle cx="128.033" cy="652.394" r="2.5" transform="rotate(0.908963 128.033 652.394)" fill="#258AFF" fill-opacity="0.2"/>
        <circle cx="128.398" cy="478.171" r="2.5" transform="rotate(0.908963 128.398 478.171)" fill="#258AFF" fill-opacity="0.2"/>
        <circle cx="128.123" cy="702.394" r="2.5" transform="rotate(0.908963 128.123 702.394)" fill="#258AFF" fill-opacity="0.2"/>
        <circle cx="152.539" cy="3.12687" r="2.5" transform="rotate(0.908963 152.539 3.12687)" fill="#258AFF" fill-opacity="0.2"/>
        <circle cx="152.63" cy="53.1268" r="2.5" transform="rotate(0.908963 152.63 53.1268)" fill="#258AFF" fill-opacity="0.2"/>
        <circle cx="152.72" cy="103.127" r="2.5" transform="rotate(0.908963 152.72 103.127)" fill="#258AFF" fill-opacity="0.2"/>
        <circle cx="152.81" cy="153.127" r="2.5" transform="rotate(0.908963 152.81 153.127)" fill="#258AFF" fill-opacity="0.2"/>
        <circle cx="152.901" cy="203.127" r="2.5" transform="rotate(0.908963 152.901 203.127)" fill="#258AFF" fill-opacity="0.2"/>
        <circle cx="152.991" cy="253.126" r="2.5" transform="rotate(0.908963 152.991 253.126)" fill="#258AFF" fill-opacity="0.2"/>
        <circle cx="153.082" cy="303.126" r="2.5" transform="rotate(0.908963 153.082 303.126)" fill="#258AFF" fill-opacity="0.2"/>
        <circle cx="152.807" cy="527.349" r="2.5" transform="rotate(0.908963 152.807 527.349)" fill="#258AFF" fill-opacity="0.2"/>
        <circle cx="153.172" cy="353.126" r="2.5" transform="rotate(0.908963 153.172 353.126)" fill="#258AFF" fill-opacity="0.2"/>
        <circle cx="152.897" cy="577.349" r="2.5" transform="rotate(0.908963 152.897 577.349)" fill="#258AFF" fill-opacity="0.2"/>
        <circle cx="153.262" cy="403.126" r="2.5" transform="rotate(0.908963 153.262 403.126)" fill="#258AFF" fill-opacity="0.2"/>
        <circle cx="152.988" cy="627.349" r="2.5" transform="rotate(0.908963 152.988 627.349)" fill="#258AFF" fill-opacity="0.2"/>
        <circle cx="153.353" cy="453.126" r="2.5" transform="rotate(0.908963 153.353 453.126)" fill="#258AFF" fill-opacity="0.2"/>
        <circle cx="153.078" cy="677.349" r="2.5" transform="rotate(0.908963 153.078 677.349)" fill="#258AFF" fill-opacity="0.2"/>
        <circle cx="152.584" cy="28.1268" r="2.5" transform="rotate(0.908963 152.584 28.1268)" fill="#258AFF" fill-opacity="0.2"/>
        <circle cx="152.675" cy="78.1268" r="2.5" transform="rotate(0.908963 152.675 78.1268)" fill="#258AFF" fill-opacity="0.2"/>
        <circle cx="152.765" cy="128.127" r="2.5" transform="rotate(0.908963 152.765 128.127)" fill="#258AFF" fill-opacity="0.2"/>
        <circle cx="152.855" cy="178.127" r="2.5" transform="rotate(0.908963 152.855 178.127)" fill="#258AFF" fill-opacity="0.2"/>
        <circle cx="152.946" cy="228.126" r="2.5" transform="rotate(0.908963 152.946 228.126)" fill="#258AFF" fill-opacity="0.2"/>
        <circle cx="153.036" cy="278.126" r="2.5" transform="rotate(0.908963 153.036 278.126)" fill="#258AFF" fill-opacity="0.2"/>
        <circle cx="152.762" cy="502.349" r="2.5" transform="rotate(0.908963 152.762 502.349)" fill="#258AFF" fill-opacity="0.2"/>
        <circle cx="153.127" cy="328.126" r="2.5" transform="rotate(0.908963 153.127 328.126)" fill="#258AFF" fill-opacity="0.2"/>
        <circle cx="152.852" cy="552.349" r="2.5" transform="rotate(0.908963 152.852 552.349)" fill="#258AFF" fill-opacity="0.2"/>
        <circle cx="153.217" cy="378.126" r="2.5" transform="rotate(0.908963 153.217 378.126)" fill="#258AFF" fill-opacity="0.2"/>
        <circle cx="152.942" cy="602.349" r="2.5" transform="rotate(0.908963 152.942 602.349)" fill="#258AFF" fill-opacity="0.2"/>
        <circle cx="153.308" cy="428.126" r="2.5" transform="rotate(0.908963 153.308 428.126)" fill="#258AFF" fill-opacity="0.2"/>
        <circle cx="153.033" cy="652.349" r="2.5" transform="rotate(0.908963 153.033 652.349)" fill="#258AFF" fill-opacity="0.2"/>
        <circle cx="153.398" cy="478.126" r="2.5" transform="rotate(0.908963 153.398 478.126)" fill="#258AFF" fill-opacity="0.2"/>
        <circle cx="153.123" cy="702.349" r="2.5" transform="rotate(0.908963 153.123 702.349)" fill="#258AFF" fill-opacity="0.2"/>
        <circle cx="177.539" cy="3.0817" r="2.5" transform="rotate(0.908963 177.539 3.0817)" fill="#258AFF" fill-opacity="0.2"/>
        <circle cx="177.629" cy="53.0816" r="2.5" transform="rotate(0.908963 177.629 53.0816)" fill="#258AFF" fill-opacity="0.2"/>
        <circle cx="177.72" cy="103.082" r="2.5" transform="rotate(0.908963 177.72 103.082)" fill="#258AFF" fill-opacity="0.2"/>
        <circle cx="177.81" cy="153.081" r="2.5" transform="rotate(0.908963 177.81 153.081)" fill="#258AFF" fill-opacity="0.2"/>
        <circle cx="177.901" cy="203.081" r="2.5" transform="rotate(0.908963 177.901 203.081)" fill="#258AFF" fill-opacity="0.2"/>
        <circle cx="177.991" cy="253.081" r="2.5" transform="rotate(0.908963 177.991 253.081)" fill="#258AFF" fill-opacity="0.2"/>
        <circle cx="178.081" cy="303.081" r="2.5" transform="rotate(0.908963 178.081 303.081)" fill="#258AFF" fill-opacity="0.2"/>
        <circle cx="177.807" cy="527.304" r="2.5" transform="rotate(0.908963 177.807 527.304)" fill="#258AFF" fill-opacity="0.2"/>
        <circle cx="178.172" cy="353.081" r="2.5" transform="rotate(0.908963 178.172 353.081)" fill="#258AFF" fill-opacity="0.2"/>
        <circle cx="177.897" cy="577.304" r="2.5" transform="rotate(0.908963 177.897 577.304)" fill="#258AFF" fill-opacity="0.2"/>
        <circle cx="178.262" cy="403.081" r="2.5" transform="rotate(0.908963 178.262 403.081)" fill="#258AFF" fill-opacity="0.2"/>
        <circle cx="177.987" cy="627.304" r="2.5" transform="rotate(0.908963 177.987 627.304)" fill="#258AFF" fill-opacity="0.2"/>
        <circle cx="178.353" cy="453.081" r="2.5" transform="rotate(0.908963 178.353 453.081)" fill="#258AFF" fill-opacity="0.2"/>
        <circle cx="178.078" cy="677.304" r="2.5" transform="rotate(0.908963 178.078 677.304)" fill="#258AFF" fill-opacity="0.2"/>
        <circle cx="177.584" cy="28.0817" r="2.5" transform="rotate(0.908963 177.584 28.0817)" fill="#258AFF" fill-opacity="0.2"/>
        <circle cx="177.675" cy="78.0816" r="2.5" transform="rotate(0.908963 177.675 78.0816)" fill="#258AFF" fill-opacity="0.2"/>
        <circle cx="177.765" cy="128.081" r="2.5" transform="rotate(0.908963 177.765 128.081)" fill="#258AFF" fill-opacity="0.2"/>
        <circle cx="177.855" cy="178.081" r="2.5" transform="rotate(0.908963 177.855 178.081)" fill="#258AFF" fill-opacity="0.2"/>
        <circle cx="177.946" cy="228.081" r="2.5" transform="rotate(0.908963 177.946 228.081)" fill="#258AFF" fill-opacity="0.2"/>
        <circle cx="178.036" cy="278.081" r="2.5" transform="rotate(0.908963 178.036 278.081)" fill="#258AFF" fill-opacity="0.2"/>
        <circle cx="177.761" cy="502.304" r="2.5" transform="rotate(0.908963 177.761 502.304)" fill="#258AFF" fill-opacity="0.2"/>
        <circle cx="178.127" cy="328.081" r="2.5" transform="rotate(0.908963 178.127 328.081)" fill="#258AFF" fill-opacity="0.2"/>
        <circle cx="177.852" cy="552.304" r="2.5" transform="rotate(0.908963 177.852 552.304)" fill="#258AFF" fill-opacity="0.2"/>
        <circle cx="178.217" cy="378.081" r="2.5" transform="rotate(0.908963 178.217 378.081)" fill="#258AFF" fill-opacity="0.2"/>
        <circle cx="177.942" cy="602.304" r="2.5" transform="rotate(0.908963 177.942 602.304)" fill="#258AFF" fill-opacity="0.2"/>
        <circle cx="178.307" cy="428.081" r="2.5" transform="rotate(0.908963 178.307 428.081)" fill="#258AFF" fill-opacity="0.2"/>
        <circle cx="178.033" cy="652.304" r="2.5" transform="rotate(0.908963 178.033 652.304)" fill="#258AFF" fill-opacity="0.2"/>
        <circle cx="178.398" cy="478.081" r="2.5" transform="rotate(0.908963 178.398 478.081)" fill="#258AFF" fill-opacity="0.2"/>
        <circle cx="178.123" cy="702.304" r="2.5" transform="rotate(0.908963 178.123 702.304)" fill="#258AFF" fill-opacity="0.2"/>
        <circle cx="202.539" cy="3.03654" r="2.5" transform="rotate(0.908963 202.539 3.03654)" fill="#258AFF" fill-opacity="0.2"/>
        <circle cx="202.629" cy="53.0364" r="2.5" transform="rotate(0.908963 202.629 53.0364)" fill="#258AFF" fill-opacity="0.2"/>
        <circle cx="202.72" cy="103.036" r="2.5" transform="rotate(0.908963 202.72 103.036)" fill="#258AFF" fill-opacity="0.2"/>
        <circle cx="202.81" cy="153.036" r="2.5" transform="rotate(0.908963 202.81 153.036)" fill="#258AFF" fill-opacity="0.2"/>
        <circle cx="202.901" cy="203.036" r="2.5" transform="rotate(0.908963 202.901 203.036)" fill="#258AFF" fill-opacity="0.2"/>
        <circle cx="202.991" cy="253.036" r="2.5" transform="rotate(0.908963 202.991 253.036)" fill="#258AFF" fill-opacity="0.2"/>
        <circle cx="203.081" cy="303.036" r="2.5" transform="rotate(0.908963 203.081 303.036)" fill="#258AFF" fill-opacity="0.2"/>
        <circle cx="202.807" cy="527.259" r="2.5" transform="rotate(0.908963 202.807 527.259)" fill="#258AFF" fill-opacity="0.2"/>
        <circle cx="203.172" cy="353.036" r="2.5" transform="rotate(0.908963 203.172 353.036)" fill="#258AFF" fill-opacity="0.2"/>
        <circle cx="202.897" cy="577.259" r="2.5" transform="rotate(0.908963 202.897 577.259)" fill="#258AFF" fill-opacity="0.2"/>
        <circle cx="203.262" cy="403.036" r="2.5" transform="rotate(0.908963 203.262 403.036)" fill="#258AFF" fill-opacity="0.2"/>
        <circle cx="202.987" cy="627.259" r="2.5" transform="rotate(0.908963 202.987 627.259)" fill="#258AFF" fill-opacity="0.2"/>
        <circle cx="203.353" cy="453.036" r="2.5" transform="rotate(0.908963 203.353 453.036)" fill="#258AFF" fill-opacity="0.2"/>
        <circle cx="203.078" cy="677.259" r="2.5" transform="rotate(0.908963 203.078 677.259)" fill="#258AFF" fill-opacity="0.2"/>
        <circle cx="202.584" cy="28.0365" r="2.5" transform="rotate(0.908963 202.584 28.0365)" fill="#258AFF" fill-opacity="0.2"/>
        <circle cx="202.675" cy="78.0363" r="2.5" transform="rotate(0.908963 202.675 78.0363)" fill="#258AFF" fill-opacity="0.2"/>
        <circle cx="202.765" cy="128.036" r="2.5" transform="rotate(0.908963 202.765 128.036)" fill="#258AFF" fill-opacity="0.2"/>
        <circle cx="202.855" cy="178.036" r="2.5" transform="rotate(0.908963 202.855 178.036)" fill="#258AFF" fill-opacity="0.2"/>
        <circle cx="202.946" cy="228.036" r="2.5" transform="rotate(0.908963 202.946 228.036)" fill="#258AFF" fill-opacity="0.2"/>
        <circle cx="203.036" cy="278.036" r="2.5" transform="rotate(0.908963 203.036 278.036)" fill="#258AFF" fill-opacity="0.2"/>
        <circle cx="202.761" cy="502.259" r="2.5" transform="rotate(0.908963 202.761 502.259)" fill="#258AFF" fill-opacity="0.2"/>
        <circle cx="203.127" cy="328.036" r="2.5" transform="rotate(0.908963 203.127 328.036)" fill="#258AFF" fill-opacity="0.2"/>
        <circle cx="202.852" cy="552.259" r="2.5" transform="rotate(0.908963 202.852 552.259)" fill="#258AFF" fill-opacity="0.2"/>
        <circle cx="203.217" cy="378.036" r="2.5" transform="rotate(0.908963 203.217 378.036)" fill="#258AFF" fill-opacity="0.2"/>
        <circle cx="202.942" cy="602.259" r="2.5" transform="rotate(0.908963 202.942 602.259)" fill="#258AFF" fill-opacity="0.2"/>
        <circle cx="203.307" cy="428.036" r="2.5" transform="rotate(0.908963 203.307 428.036)" fill="#258AFF" fill-opacity="0.2"/>
        <circle cx="203.033" cy="652.259" r="2.5" transform="rotate(0.908963 203.033 652.259)" fill="#258AFF" fill-opacity="0.2"/>
        <circle cx="203.398" cy="478.036" r="2.5" transform="rotate(0.908963 203.398 478.036)" fill="#258AFF" fill-opacity="0.2"/>
        <circle cx="203.123" cy="702.258" r="2.5" transform="rotate(0.908963 203.123 702.258)" fill="#258AFF" fill-opacity="0.2"/>
        <circle cx="227.539" cy="2.99131" r="2.5" transform="rotate(0.908963 227.539 2.99131)" fill="#258AFF" fill-opacity="0.2"/>
        <circle cx="227.629" cy="52.9912" r="2.5" transform="rotate(0.908963 227.629 52.9912)" fill="#258AFF" fill-opacity="0.2"/>
        <circle cx="227.72" cy="102.991" r="2.5" transform="rotate(0.908963 227.72 102.991)" fill="#258AFF" fill-opacity="0.2"/>
        <circle cx="227.81" cy="152.991" r="2.5" transform="rotate(0.908963 227.81 152.991)" fill="#258AFF" fill-opacity="0.2"/>
        <circle cx="227.901" cy="202.991" r="2.5" transform="rotate(0.908963 227.901 202.991)" fill="#258AFF" fill-opacity="0.2"/>
        <circle cx="227.991" cy="252.991" r="2.5" transform="rotate(0.908963 227.991 252.991)" fill="#258AFF" fill-opacity="0.2"/>
        <circle cx="228.081" cy="302.991" r="2.5" transform="rotate(0.908963 228.081 302.991)" fill="#258AFF" fill-opacity="0.2"/>
        <circle cx="227.807" cy="527.214" r="2.5" transform="rotate(0.908963 227.807 527.214)" fill="#258AFF" fill-opacity="0.2"/>
        <circle cx="228.172" cy="352.991" r="2.5" transform="rotate(0.908963 228.172 352.991)" fill="#258AFF" fill-opacity="0.2"/>
        <circle cx="227.897" cy="577.213" r="2.5" transform="rotate(0.908963 227.897 577.213)" fill="#258AFF" fill-opacity="0.2"/>
        <circle cx="228.262" cy="402.991" r="2.5" transform="rotate(0.908963 228.262 402.991)" fill="#258AFF" fill-opacity="0.2"/>
        <circle cx="227.987" cy="627.213" r="2.5" transform="rotate(0.908963 227.987 627.213)" fill="#258AFF" fill-opacity="0.2"/>
        <circle cx="228.353" cy="452.991" r="2.5" transform="rotate(0.908963 228.353 452.991)" fill="#258AFF" fill-opacity="0.2"/>
        <circle cx="228.078" cy="677.213" r="2.5" transform="rotate(0.908963 228.078 677.213)" fill="#258AFF" fill-opacity="0.2"/>
        <circle cx="227.584" cy="27.9913" r="2.5" transform="rotate(0.908963 227.584 27.9913)" fill="#258AFF" fill-opacity="0.2"/>
        <circle cx="227.675" cy="77.9912" r="2.5" transform="rotate(0.908963 227.675 77.9912)" fill="#258AFF" fill-opacity="0.2"/>
        <circle cx="227.765" cy="127.991" r="2.5" transform="rotate(0.908963 227.765 127.991)" fill="#258AFF" fill-opacity="0.2"/>
        <circle cx="227.855" cy="177.991" r="2.5" transform="rotate(0.908963 227.855 177.991)" fill="#258AFF" fill-opacity="0.2"/>
        <circle cx="227.946" cy="227.991" r="2.5" transform="rotate(0.908963 227.946 227.991)" fill="#258AFF" fill-opacity="0.2"/>
        <circle cx="228.036" cy="277.991" r="2.5" transform="rotate(0.908963 228.036 277.991)" fill="#258AFF" fill-opacity="0.2"/>
        <circle cx="227.761" cy="502.214" r="2.5" transform="rotate(0.908963 227.761 502.214)" fill="#258AFF" fill-opacity="0.2"/>
        <circle cx="228.127" cy="327.991" r="2.5" transform="rotate(0.908963 228.127 327.991)" fill="#258AFF" fill-opacity="0.2"/>
        <circle cx="227.852" cy="552.214" r="2.5" transform="rotate(0.908963 227.852 552.214)" fill="#258AFF" fill-opacity="0.2"/>
        <circle cx="228.217" cy="377.991" r="2.5" transform="rotate(0.908963 228.217 377.991)" fill="#258AFF" fill-opacity="0.2"/>
        <circle cx="227.942" cy="602.213" r="2.5" transform="rotate(0.908963 227.942 602.213)" fill="#258AFF" fill-opacity="0.2"/>
        <circle cx="228.307" cy="427.991" r="2.5" transform="rotate(0.908963 228.307 427.991)" fill="#258AFF" fill-opacity="0.2"/>
        <circle cx="228.033" cy="652.213" r="2.5" transform="rotate(0.908963 228.033 652.213)" fill="#258AFF" fill-opacity="0.2"/>
        <circle cx="228.398" cy="477.991" r="2.5" transform="rotate(0.908963 228.398 477.991)" fill="#258AFF" fill-opacity="0.2"/>
        <circle cx="228.123" cy="702.213" r="2.5" transform="rotate(0.908963 228.123 702.213)" fill="#258AFF" fill-opacity="0.2"/>
        <circle cx="252.539" cy="2.94614" r="2.5" transform="rotate(0.908963 252.539 2.94614)" fill="#258AFF" fill-opacity="0.2"/>
        <circle cx="252.629" cy="52.9461" r="2.5" transform="rotate(0.908963 252.629 52.9461)" fill="#258AFF" fill-opacity="0.2"/>
        <circle cx="252.72" cy="102.946" r="2.5" transform="rotate(0.908963 252.72 102.946)" fill="#258AFF" fill-opacity="0.2"/>
        <circle cx="252.81" cy="152.946" r="2.5" transform="rotate(0.908963 252.81 152.946)" fill="#258AFF" fill-opacity="0.2"/>
        <circle cx="252.901" cy="202.946" r="2.5" transform="rotate(0.908963 252.901 202.946)" fill="#258AFF" fill-opacity="0.2"/>
        <circle cx="252.991" cy="252.946" r="2.5" transform="rotate(0.908963 252.991 252.946)" fill="#258AFF" fill-opacity="0.2"/>
        <circle cx="253.081" cy="302.946" r="2.5" transform="rotate(0.908963 253.081 302.946)" fill="#258AFF" fill-opacity="0.2"/>
        <circle cx="252.806" cy="527.168" r="2.5" transform="rotate(0.908963 252.806 527.168)" fill="#258AFF" fill-opacity="0.2"/>
        <circle cx="253.172" cy="352.945" r="2.5" transform="rotate(0.908963 253.172 352.945)" fill="#258AFF" fill-opacity="0.2"/>
        <circle cx="252.897" cy="577.168" r="2.5" transform="rotate(0.908963 252.897 577.168)" fill="#258AFF" fill-opacity="0.2"/>
        <circle cx="253.262" cy="402.945" r="2.5" transform="rotate(0.908963 253.262 402.945)" fill="#258AFF" fill-opacity="0.2"/>
        <circle cx="252.987" cy="627.168" r="2.5" transform="rotate(0.908963 252.987 627.168)" fill="#258AFF" fill-opacity="0.2"/>
        <circle cx="253.352" cy="452.945" r="2.5" transform="rotate(0.908963 253.352 452.945)" fill="#258AFF" fill-opacity="0.2"/>
        <circle cx="253.078" cy="677.168" r="2.5" transform="rotate(0.908963 253.078 677.168)" fill="#258AFF" fill-opacity="0.2"/>
        <circle cx="252.584" cy="27.9461" r="2.5" transform="rotate(0.908963 252.584 27.9461)" fill="#258AFF" fill-opacity="0.2"/>
        <circle cx="252.675" cy="77.946" r="2.5" transform="rotate(0.908963 252.675 77.946)" fill="#258AFF" fill-opacity="0.2"/>
        <circle cx="252.765" cy="127.946" r="2.5" transform="rotate(0.908963 252.765 127.946)" fill="#258AFF" fill-opacity="0.2"/>
        <circle cx="252.855" cy="177.946" r="2.5" transform="rotate(0.908963 252.855 177.946)" fill="#258AFF" fill-opacity="0.2"/>
        <circle cx="252.946" cy="227.946" r="2.5" transform="rotate(0.908963 252.946 227.946)" fill="#258AFF" fill-opacity="0.2"/>
        <circle cx="253.036" cy="277.946" r="2.5" transform="rotate(0.908963 253.036 277.946)" fill="#258AFF" fill-opacity="0.2"/>
        <circle cx="252.761" cy="502.168" r="2.5" transform="rotate(0.908963 252.761 502.168)" fill="#258AFF" fill-opacity="0.2"/>
        <circle cx="253.127" cy="327.946" r="2.5" transform="rotate(0.908963 253.127 327.946)" fill="#258AFF" fill-opacity="0.2"/>
        <circle cx="252.852" cy="552.168" r="2.5" transform="rotate(0.908963 252.852 552.168)" fill="#258AFF" fill-opacity="0.2"/>
        <circle cx="253.217" cy="377.945" r="2.5" transform="rotate(0.908963 253.217 377.945)" fill="#258AFF" fill-opacity="0.2"/>
        <circle cx="252.942" cy="602.168" r="2.5" transform="rotate(0.908963 252.942 602.168)" fill="#258AFF" fill-opacity="0.2"/>
        <circle cx="253.307" cy="427.945" r="2.5" transform="rotate(0.908963 253.307 427.945)" fill="#258AFF" fill-opacity="0.2"/>
        <circle cx="253.033" cy="652.168" r="2.5" transform="rotate(0.908963 253.033 652.168)" fill="#258AFF" fill-opacity="0.2"/>
        <circle cx="253.398" cy="477.945" r="2.5" transform="rotate(0.908963 253.398 477.945)" fill="#258AFF" fill-opacity="0.2"/>
        <circle cx="253.123" cy="702.168" r="2.5" transform="rotate(0.908963 253.123 702.168)" fill="#258AFF" fill-opacity="0.2"/>
        <circle cx="277.539" cy="2.90089" r="2.5" transform="rotate(0.908963 277.539 2.90089)" fill="#258AFF" fill-opacity="0.2"/>
        <circle cx="277.629" cy="52.9008" r="2.5" transform="rotate(0.908963 277.629 52.9008)" fill="#258AFF" fill-opacity="0.2"/>
        <circle cx="277.72" cy="102.901" r="2.5" transform="rotate(0.908963 277.72 102.901)" fill="#258AFF" fill-opacity="0.2"/>
        <circle cx="277.81" cy="152.901" r="2.5" transform="rotate(0.908963 277.81 152.901)" fill="#258AFF" fill-opacity="0.2"/>
        <circle cx="277.9" cy="202.901" r="2.5" transform="rotate(0.908963 277.9 202.901)" fill="#258AFF" fill-opacity="0.2"/>
        <circle cx="277.991" cy="252.9" r="2.5" transform="rotate(0.908963 277.991 252.9)" fill="#258AFF" fill-opacity="0.2"/>
        <circle cx="278.081" cy="302.9" r="2.5" transform="rotate(0.908963 278.081 302.9)" fill="#258AFF" fill-opacity="0.2"/>
        <circle cx="277.806" cy="527.123" r="2.5" transform="rotate(0.908963 277.806 527.123)" fill="#258AFF" fill-opacity="0.2"/>
        <circle cx="278.172" cy="352.9" r="2.5" transform="rotate(0.908963 278.172 352.9)" fill="#258AFF" fill-opacity="0.2"/>
        <circle cx="277.897" cy="577.123" r="2.5" transform="rotate(0.908963 277.897 577.123)" fill="#258AFF" fill-opacity="0.2"/>
        <circle cx="278.262" cy="402.9" r="2.5" transform="rotate(0.908963 278.262 402.9)" fill="#258AFF" fill-opacity="0.2"/>
        <circle cx="277.987" cy="627.123" r="2.5" transform="rotate(0.908963 277.987 627.123)" fill="#258AFF" fill-opacity="0.2"/>
        <circle cx="278.352" cy="452.9" r="2.5" transform="rotate(0.908963 278.352 452.9)" fill="#258AFF" fill-opacity="0.2"/>
        <circle cx="278.078" cy="677.123" r="2.5" transform="rotate(0.908963 278.078 677.123)" fill="#258AFF" fill-opacity="0.2"/>
        <circle cx="277.584" cy="27.9009" r="2.5" transform="rotate(0.908963 277.584 27.9009)" fill="#258AFF" fill-opacity="0.2"/>
        <circle cx="277.675" cy="77.9008" r="2.5" transform="rotate(0.908963 277.675 77.9008)" fill="#258AFF" fill-opacity="0.2"/>
        <circle cx="277.765" cy="127.901" r="2.5" transform="rotate(0.908963 277.765 127.901)" fill="#258AFF" fill-opacity="0.2"/>
        <circle cx="277.855" cy="177.901" r="2.5" transform="rotate(0.908963 277.855 177.901)" fill="#258AFF" fill-opacity="0.2"/>
        <circle cx="277.946" cy="227.901" r="2.5" transform="rotate(0.908963 277.946 227.901)" fill="#258AFF" fill-opacity="0.2"/>
        <circle cx="278.036" cy="277.9" r="2.5" transform="rotate(0.908963 278.036 277.9)" fill="#258AFF" fill-opacity="0.2"/>
        <circle cx="277.761" cy="502.123" r="2.5" transform="rotate(0.908963 277.761 502.123)" fill="#258AFF" fill-opacity="0.2"/>
        <circle cx="278.126" cy="327.9" r="2.5" transform="rotate(0.908963 278.126 327.9)" fill="#258AFF" fill-opacity="0.2"/>
        <circle cx="277.852" cy="552.123" r="2.5" transform="rotate(0.908963 277.852 552.123)" fill="#258AFF" fill-opacity="0.2"/>
        <circle cx="278.217" cy="377.9" r="2.5" transform="rotate(0.908963 278.217 377.9)" fill="#258AFF" fill-opacity="0.2"/>
        <circle cx="277.942" cy="602.123" r="2.5" transform="rotate(0.908963 277.942 602.123)" fill="#258AFF" fill-opacity="0.2"/>
        <circle cx="278.307" cy="427.9" r="2.5" transform="rotate(0.908963 278.307 427.9)" fill="#258AFF" fill-opacity="0.2"/>
        <circle cx="278.033" cy="652.123" r="2.5" transform="rotate(0.908963 278.033 652.123)" fill="#258AFF" fill-opacity="0.2"/>
        <circle cx="278.398" cy="477.9" r="2.5" transform="rotate(0.908963 278.398 477.9)" fill="#258AFF" fill-opacity="0.2"/>
        <circle cx="278.123" cy="702.123" r="2.5" transform="rotate(0.908963 278.123 702.123)" fill="#258AFF" fill-opacity="0.2"/>
        <circle cx="302.539" cy="2.85569" r="2.5" transform="rotate(0.908963 302.539 2.85569)" fill="#258AFF" fill-opacity="0.2"/>
        <circle cx="302.629" cy="52.8556" r="2.5" transform="rotate(0.908963 302.629 52.8556)" fill="#258AFF" fill-opacity="0.2"/>
        <circle cx="302.72" cy="102.856" r="2.5" transform="rotate(0.908963 302.72 102.856)" fill="#258AFF" fill-opacity="0.2"/>
        <circle cx="302.81" cy="152.855" r="2.5" transform="rotate(0.908963 302.81 152.855)" fill="#258AFF" fill-opacity="0.2"/>
        <circle cx="302.9" cy="202.855" r="2.5" transform="rotate(0.908963 302.9 202.855)" fill="#258AFF" fill-opacity="0.2"/>
        <circle cx="302.991" cy="252.855" r="2.5" transform="rotate(0.908963 302.991 252.855)" fill="#258AFF" fill-opacity="0.2"/>
        <circle cx="303.081" cy="302.855" r="2.5" transform="rotate(0.908963 303.081 302.855)" fill="#258AFF" fill-opacity="0.2"/>
        <circle cx="302.806" cy="527.078" r="2.5" transform="rotate(0.908963 302.806 527.078)" fill="#258AFF" fill-opacity="0.2"/>
        <circle cx="303.172" cy="352.855" r="2.5" transform="rotate(0.908963 303.172 352.855)" fill="#258AFF" fill-opacity="0.2"/>
        <circle cx="302.897" cy="577.078" r="2.5" transform="rotate(0.908963 302.897 577.078)" fill="#258AFF" fill-opacity="0.2"/>
        <circle cx="303.262" cy="402.855" r="2.5" transform="rotate(0.908963 303.262 402.855)" fill="#258AFF" fill-opacity="0.2"/>
        <circle cx="302.987" cy="627.078" r="2.5" transform="rotate(0.908963 302.987 627.078)" fill="#258AFF" fill-opacity="0.2"/>
        <circle cx="303.352" cy="452.855" r="2.5" transform="rotate(0.908963 303.352 452.855)" fill="#258AFF" fill-opacity="0.2"/>
        <circle cx="303.078" cy="677.078" r="2.5" transform="rotate(0.908963 303.078 677.078)" fill="#258AFF" fill-opacity="0.2"/>
        <circle cx="302.584" cy="27.8556" r="2.5" transform="rotate(0.908963 302.584 27.8556)" fill="#258AFF" fill-opacity="0.2"/>
        <circle cx="302.674" cy="77.8556" r="2.5" transform="rotate(0.908963 302.674 77.8556)" fill="#258AFF" fill-opacity="0.2"/>
        <circle cx="302.765" cy="127.856" r="2.5" transform="rotate(0.908963 302.765 127.856)" fill="#258AFF" fill-opacity="0.2"/>
        <circle cx="302.855" cy="177.855" r="2.5" transform="rotate(0.908963 302.855 177.855)" fill="#258AFF" fill-opacity="0.2"/>
        <circle cx="302.946" cy="227.855" r="2.5" transform="rotate(0.908963 302.946 227.855)" fill="#258AFF" fill-opacity="0.2"/>
        <circle cx="303.036" cy="277.855" r="2.5" transform="rotate(0.908963 303.036 277.855)" fill="#258AFF" fill-opacity="0.2"/>
        <circle cx="302.761" cy="502.078" r="2.5" transform="rotate(0.908963 302.761 502.078)" fill="#258AFF" fill-opacity="0.2"/>
        <circle cx="303.126" cy="327.855" r="2.5" transform="rotate(0.908963 303.126 327.855)" fill="#258AFF" fill-opacity="0.2"/>
        <circle cx="302.852" cy="552.078" r="2.5" transform="rotate(0.908963 302.852 552.078)" fill="#258AFF" fill-opacity="0.2"/>
        <circle cx="303.217" cy="377.855" r="2.5" transform="rotate(0.908963 303.217 377.855)" fill="#258AFF" fill-opacity="0.2"/>
        <circle cx="302.942" cy="602.078" r="2.5" transform="rotate(0.908963 302.942 602.078)" fill="#258AFF" fill-opacity="0.2"/>
        <circle cx="303.307" cy="427.855" r="2.5" transform="rotate(0.908963 303.307 427.855)" fill="#258AFF" fill-opacity="0.2"/>
        <circle cx="303.033" cy="652.078" r="2.5" transform="rotate(0.908963 303.033 652.078)" fill="#258AFF" fill-opacity="0.2"/>
        <circle cx="303.398" cy="477.855" r="2.5" transform="rotate(0.908963 303.398 477.855)" fill="#258AFF" fill-opacity="0.2"/>
        <circle cx="303.123" cy="702.078" r="2.5" transform="rotate(0.908963 303.123 702.078)" fill="#258AFF" fill-opacity="0.2"/>
        <circle cx="327.539" cy="2.81059" r="2.5" transform="rotate(0.908963 327.539 2.81059)" fill="#258AFF" fill-opacity="0.2"/>
        <circle cx="327.629" cy="52.8105" r="2.5" transform="rotate(0.908963 327.629 52.8105)" fill="#258AFF" fill-opacity="0.2"/>
        <circle cx="327.72" cy="102.81" r="2.5" transform="rotate(0.908963 327.72 102.81)" fill="#258AFF" fill-opacity="0.2"/>
        <circle cx="327.81" cy="152.81" r="2.5" transform="rotate(0.908963 327.81 152.81)" fill="#258AFF" fill-opacity="0.2"/>
        <circle cx="327.901" cy="202.81" r="2.5" transform="rotate(0.908963 327.901 202.81)" fill="#258AFF" fill-opacity="0.2"/>
        <circle cx="327.991" cy="252.81" r="2.5" transform="rotate(0.908963 327.991 252.81)" fill="#258AFF" fill-opacity="0.2"/>
        <circle cx="328.081" cy="302.81" r="2.5" transform="rotate(0.908963 328.081 302.81)" fill="#258AFF" fill-opacity="0.2"/>
        <circle cx="327.806" cy="527.033" r="2.5" transform="rotate(0.908963 327.806 527.033)" fill="#258AFF" fill-opacity="0.2"/>
        <circle cx="328.172" cy="352.81" r="2.5" transform="rotate(0.908963 328.172 352.81)" fill="#258AFF" fill-opacity="0.2"/>
        <circle cx="327.897" cy="577.033" r="2.5" transform="rotate(0.908963 327.897 577.033)" fill="#258AFF" fill-opacity="0.2"/>
        <circle cx="328.262" cy="402.81" r="2.5" transform="rotate(0.908963 328.262 402.81)" fill="#258AFF" fill-opacity="0.2"/>
        <circle cx="327.987" cy="627.033" r="2.5" transform="rotate(0.908963 327.987 627.033)" fill="#258AFF" fill-opacity="0.2"/>
        <circle cx="328.352" cy="452.81" r="2.5" transform="rotate(0.908963 328.352 452.81)" fill="#258AFF" fill-opacity="0.2"/>
        <circle cx="328.078" cy="677.033" r="2.5" transform="rotate(0.908963 328.078 677.033)" fill="#258AFF" fill-opacity="0.2"/>
        <circle cx="327.584" cy="27.8105" r="2.5" transform="rotate(0.908963 327.584 27.8105)" fill="#258AFF" fill-opacity="0.2"/>
        <circle cx="327.675" cy="77.8104" r="2.5" transform="rotate(0.908963 327.675 77.8104)" fill="#258AFF" fill-opacity="0.2"/>
        <circle cx="327.765" cy="127.81" r="2.5" transform="rotate(0.908963 327.765 127.81)" fill="#258AFF" fill-opacity="0.2"/>
        <circle cx="327.855" cy="177.81" r="2.5" transform="rotate(0.908963 327.855 177.81)" fill="#258AFF" fill-opacity="0.2"/>
        <circle cx="327.946" cy="227.81" r="2.5" transform="rotate(0.908963 327.946 227.81)" fill="#258AFF" fill-opacity="0.2"/>
        <circle cx="328.036" cy="277.81" r="2.5" transform="rotate(0.908963 328.036 277.81)" fill="#258AFF" fill-opacity="0.2"/>
        <circle cx="327.761" cy="502.033" r="2.5" transform="rotate(0.908963 327.761 502.033)" fill="#258AFF" fill-opacity="0.2"/>
        <circle cx="328.127" cy="327.81" r="2.5" transform="rotate(0.908963 328.127 327.81)" fill="#258AFF" fill-opacity="0.2"/>
        <circle cx="327.852" cy="552.033" r="2.5" transform="rotate(0.908963 327.852 552.033)" fill="#258AFF" fill-opacity="0.2"/>
        <circle cx="328.217" cy="377.81" r="2.5" transform="rotate(0.908963 328.217 377.81)" fill="#258AFF" fill-opacity="0.2"/>
        <circle cx="327.942" cy="602.033" r="2.5" transform="rotate(0.908963 327.942 602.033)" fill="#258AFF" fill-opacity="0.2"/>
        <circle cx="328.307" cy="427.81" r="2.5" transform="rotate(0.908963 328.307 427.81)" fill="#258AFF" fill-opacity="0.2"/>
        <circle cx="328.032" cy="652.033" r="2.5" transform="rotate(0.908963 328.032 652.033)" fill="#258AFF" fill-opacity="0.2"/>
        <circle cx="328.398" cy="477.81" r="2.5" transform="rotate(0.908963 328.398 477.81)" fill="#258AFF" fill-opacity="0.2"/>
        <circle cx="328.123" cy="702.033" r="2.5" transform="rotate(0.908963 328.123 702.033)" fill="#258AFF" fill-opacity="0.2"/>
        <circle cx="352.539" cy="2.76536" r="2.5" transform="rotate(0.908963 352.539 2.76536)" fill="#258AFF" fill-opacity="0.2"/>
        <circle cx="352.629" cy="52.7653" r="2.5" transform="rotate(0.908963 352.629 52.7653)" fill="#258AFF" fill-opacity="0.2"/>
        <circle cx="352.72" cy="102.765" r="2.5" transform="rotate(0.908963 352.72 102.765)" fill="#258AFF" fill-opacity="0.2"/>
        <circle cx="352.81" cy="152.765" r="2.5" transform="rotate(0.908963 352.81 152.765)" fill="#258AFF" fill-opacity="0.2"/>
        <circle cx="352.9" cy="202.765" r="2.5" transform="rotate(0.908963 352.9 202.765)" fill="#258AFF" fill-opacity="0.2"/>
        <circle cx="352.991" cy="252.765" r="2.5" transform="rotate(0.908963 352.991 252.765)" fill="#258AFF" fill-opacity="0.2"/>
        <circle cx="353.081" cy="302.765" r="2.5" transform="rotate(0.908963 353.081 302.765)" fill="#258AFF" fill-opacity="0.2"/>
        <circle cx="352.806" cy="526.988" r="2.5" transform="rotate(0.908963 352.806 526.988)" fill="#258AFF" fill-opacity="0.2"/>
        <circle cx="353.172" cy="352.765" r="2.5" transform="rotate(0.908963 353.172 352.765)" fill="#258AFF" fill-opacity="0.2"/>
        <circle cx="352.897" cy="576.987" r="2.5" transform="rotate(0.908963 352.897 576.987)" fill="#258AFF" fill-opacity="0.2"/>
        <circle cx="353.262" cy="402.765" r="2.5" transform="rotate(0.908963 353.262 402.765)" fill="#258AFF" fill-opacity="0.2"/>
        <circle cx="352.987" cy="626.987" r="2.5" transform="rotate(0.908963 352.987 626.987)" fill="#258AFF" fill-opacity="0.2"/>
        <circle cx="353.352" cy="452.765" r="2.5" transform="rotate(0.908963 353.352 452.765)" fill="#258AFF" fill-opacity="0.2"/>
        <circle cx="353.078" cy="676.987" r="2.5" transform="rotate(0.908963 353.078 676.987)" fill="#258AFF" fill-opacity="0.2"/>
        <circle cx="352.584" cy="27.7653" r="2.5" transform="rotate(0.908963 352.584 27.7653)" fill="#258AFF" fill-opacity="0.2"/>
        <circle cx="352.675" cy="77.7652" r="2.5" transform="rotate(0.908963 352.675 77.7652)" fill="#258AFF" fill-opacity="0.2"/>
        <circle cx="352.765" cy="127.765" r="2.5" transform="rotate(0.908963 352.765 127.765)" fill="#258AFF" fill-opacity="0.2"/>
        <circle cx="352.855" cy="177.765" r="2.5" transform="rotate(0.908963 352.855 177.765)" fill="#258AFF" fill-opacity="0.2"/>
        <circle cx="352.946" cy="227.765" r="2.5" transform="rotate(0.908963 352.946 227.765)" fill="#258AFF" fill-opacity="0.2"/>
        <circle cx="353.036" cy="277.765" r="2.5" transform="rotate(0.908963 353.036 277.765)" fill="#258AFF" fill-opacity="0.2"/>
        <circle cx="352.761" cy="501.988" r="2.5" transform="rotate(0.908963 352.761 501.988)" fill="#258AFF" fill-opacity="0.2"/>
        <circle cx="353.126" cy="327.765" r="2.5" transform="rotate(0.908963 353.126 327.765)" fill="#258AFF" fill-opacity="0.2"/>
        <circle cx="352.852" cy="551.988" r="2.5" transform="rotate(0.908963 352.852 551.988)" fill="#258AFF" fill-opacity="0.2"/>
        <circle cx="353.217" cy="377.765" r="2.5" transform="rotate(0.908963 353.217 377.765)" fill="#258AFF" fill-opacity="0.2"/>
        <circle cx="352.942" cy="601.987" r="2.5" transform="rotate(0.908963 352.942 601.987)" fill="#258AFF" fill-opacity="0.2"/>
        <circle cx="353.307" cy="427.765" r="2.5" transform="rotate(0.908963 353.307 427.765)" fill="#258AFF" fill-opacity="0.2"/>
        <circle cx="353.032" cy="651.987" r="2.5" transform="rotate(0.908963 353.032 651.987)" fill="#258AFF" fill-opacity="0.2"/>
        <circle cx="353.398" cy="477.765" r="2.5" transform="rotate(0.908963 353.398 477.765)" fill="#258AFF" fill-opacity="0.2"/>
        <circle cx="353.123" cy="701.987" r="2.5" transform="rotate(0.908963 353.123 701.987)" fill="#258AFF" fill-opacity="0.2"/>
        <circle cx="377.539" cy="2.7201" r="2.5" transform="rotate(0.908963 377.539 2.7201)" fill="#258AFF" fill-opacity="0.2"/>
        <circle cx="377.629" cy="52.72" r="2.5" transform="rotate(0.908963 377.629 52.72)" fill="#258AFF" fill-opacity="0.2"/>
        <circle cx="377.72" cy="102.72" r="2.5" transform="rotate(0.908963 377.72 102.72)" fill="#258AFF" fill-opacity="0.2"/>
        <circle cx="377.81" cy="152.72" r="2.5" transform="rotate(0.908963 377.81 152.72)" fill="#258AFF" fill-opacity="0.2"/>
        <circle cx="377.9" cy="202.72" r="2.5" transform="rotate(0.908963 377.9 202.72)" fill="#258AFF" fill-opacity="0.2"/>
        <circle cx="377.991" cy="252.72" r="2.5" transform="rotate(0.908963 377.991 252.72)" fill="#258AFF" fill-opacity="0.2"/>
        <circle cx="378.081" cy="302.72" r="2.5" transform="rotate(0.908963 378.081 302.72)" fill="#258AFF" fill-opacity="0.2"/>
        <circle cx="377.806" cy="526.942" r="2.5" transform="rotate(0.908963 377.806 526.942)" fill="#258AFF" fill-opacity="0.2"/>
        <circle cx="378.171" cy="352.72" r="2.5" transform="rotate(0.908963 378.171 352.72)" fill="#258AFF" fill-opacity="0.2"/>
        <circle cx="377.897" cy="576.942" r="2.5" transform="rotate(0.908963 377.897 576.942)" fill="#258AFF" fill-opacity="0.2"/>
        <circle cx="378.262" cy="402.719" r="2.5" transform="rotate(0.908963 378.262 402.719)" fill="#258AFF" fill-opacity="0.2"/>
        <circle cx="377.987" cy="626.942" r="2.5" transform="rotate(0.908963 377.987 626.942)" fill="#258AFF" fill-opacity="0.2"/>
        <circle cx="378.352" cy="452.719" r="2.5" transform="rotate(0.908963 378.352 452.719)" fill="#258AFF" fill-opacity="0.2"/>
        <circle cx="378.078" cy="676.942" r="2.5" transform="rotate(0.908963 378.078 676.942)" fill="#258AFF" fill-opacity="0.2"/>
        <circle cx="377.584" cy="27.7201" r="2.5" transform="rotate(0.908963 377.584 27.7201)" fill="#258AFF" fill-opacity="0.2"/>
        <circle cx="377.674" cy="77.72" r="2.5" transform="rotate(0.908963 377.674 77.72)" fill="#258AFF" fill-opacity="0.2"/>
        <circle cx="377.765" cy="127.72" r="2.5" transform="rotate(0.908963 377.765 127.72)" fill="#258AFF" fill-opacity="0.2"/>
        <circle cx="377.855" cy="177.72" r="2.5" transform="rotate(0.908963 377.855 177.72)" fill="#258AFF" fill-opacity="0.2"/>
        <circle cx="377.946" cy="227.72" r="2.5" transform="rotate(0.908963 377.946 227.72)" fill="#258AFF" fill-opacity="0.2"/>
        <circle cx="378.036" cy="277.72" r="2.5" transform="rotate(0.908963 378.036 277.72)" fill="#258AFF" fill-opacity="0.2"/>
        <circle cx="377.761" cy="501.942" r="2.5" transform="rotate(0.908963 377.761 501.942)" fill="#258AFF" fill-opacity="0.2"/>
        <circle cx="378.126" cy="327.72" r="2.5" transform="rotate(0.908963 378.126 327.72)" fill="#258AFF" fill-opacity="0.2"/>
        <circle cx="377.852" cy="551.942" r="2.5" transform="rotate(0.908963 377.852 551.942)" fill="#258AFF" fill-opacity="0.2"/>
        <circle cx="378.217" cy="377.719" r="2.5" transform="rotate(0.908963 378.217 377.719)" fill="#258AFF" fill-opacity="0.2"/>
        <circle cx="377.942" cy="601.942" r="2.5" transform="rotate(0.908963 377.942 601.942)" fill="#258AFF" fill-opacity="0.2"/>
        <circle cx="378.307" cy="427.72" r="2.5" transform="rotate(0.908963 378.307 427.72)" fill="#258AFF" fill-opacity="0.2"/>
        <circle cx="378.033" cy="651.942" r="2.5" transform="rotate(0.908963 378.033 651.942)" fill="#258AFF" fill-opacity="0.2"/>
        <circle cx="378.398" cy="477.719" r="2.5" transform="rotate(0.908963 378.398 477.719)" fill="#258AFF" fill-opacity="0.2"/>
        <circle cx="378.123" cy="701.942" r="2.5" transform="rotate(0.908963 378.123 701.942)" fill="#258AFF" fill-opacity="0.2"/>
        <circle cx="402.539" cy="2.67496" r="2.5" transform="rotate(0.908963 402.539 2.67496)" fill="#258AFF" fill-opacity="0.2"/>
        <circle cx="402.629" cy="52.6749" r="2.5" transform="rotate(0.908963 402.629 52.6749)" fill="#258AFF" fill-opacity="0.2"/>
        <circle cx="402.72" cy="102.675" r="2.5" transform="rotate(0.908963 402.72 102.675)" fill="#258AFF" fill-opacity="0.2"/>
        <circle cx="402.81" cy="152.675" r="2.5" transform="rotate(0.908963 402.81 152.675)" fill="#258AFF" fill-opacity="0.2"/>
        <circle cx="402.9" cy="202.675" r="2.5" transform="rotate(0.908963 402.9 202.675)" fill="#258AFF" fill-opacity="0.2"/>
        <circle cx="402.991" cy="252.675" r="2.5" transform="rotate(0.908963 402.991 252.675)" fill="#258AFF" fill-opacity="0.2"/>
        <circle cx="403.081" cy="302.674" r="2.5" transform="rotate(0.908963 403.081 302.674)" fill="#258AFF" fill-opacity="0.2"/>
        <circle cx="402.806" cy="526.897" r="2.5" transform="rotate(0.908963 402.806 526.897)" fill="#258AFF" fill-opacity="0.2"/>
        <circle cx="403.171" cy="352.674" r="2.5" transform="rotate(0.908963 403.171 352.674)" fill="#258AFF" fill-opacity="0.2"/>
        <circle cx="402.897" cy="576.897" r="2.5" transform="rotate(0.908963 402.897 576.897)" fill="#258AFF" fill-opacity="0.2"/>
        <circle cx="403.262" cy="402.674" r="2.5" transform="rotate(0.908963 403.262 402.674)" fill="#258AFF" fill-opacity="0.2"/>
        <circle cx="402.987" cy="626.897" r="2.5" transform="rotate(0.908963 402.987 626.897)" fill="#258AFF" fill-opacity="0.2"/>
        <circle cx="403.352" cy="452.674" r="2.5" transform="rotate(0.908963 403.352 452.674)" fill="#258AFF" fill-opacity="0.2"/>
        <circle cx="403.077" cy="676.897" r="2.5" transform="rotate(0.908963 403.077 676.897)" fill="#258AFF" fill-opacity="0.2"/>
        <circle cx="402.584" cy="27.6749" r="2.5" transform="rotate(0.908963 402.584 27.6749)" fill="#258AFF" fill-opacity="0.2"/>
        <circle cx="402.675" cy="77.6749" r="2.5" transform="rotate(0.908963 402.675 77.6749)" fill="#258AFF" fill-opacity="0.2"/>
        <circle cx="402.765" cy="127.675" r="2.5" transform="rotate(0.908963 402.765 127.675)" fill="#258AFF" fill-opacity="0.2"/>
        <circle cx="402.855" cy="177.675" r="2.5" transform="rotate(0.908963 402.855 177.675)" fill="#258AFF" fill-opacity="0.2"/>
        <circle cx="402.946" cy="227.675" r="2.5" transform="rotate(0.908963 402.946 227.675)" fill="#258AFF" fill-opacity="0.2"/>
        <circle cx="403.036" cy="277.675" r="2.5" transform="rotate(0.908963 403.036 277.675)" fill="#258AFF" fill-opacity="0.2"/>
        <circle cx="402.761" cy="501.897" r="2.5" transform="rotate(0.908963 402.761 501.897)" fill="#258AFF" fill-opacity="0.2"/>
        <circle cx="403.126" cy="327.674" r="2.5" transform="rotate(0.908963 403.126 327.674)" fill="#258AFF" fill-opacity="0.2"/>
        <circle cx="402.852" cy="551.897" r="2.5" transform="rotate(0.908963 402.852 551.897)" fill="#258AFF" fill-opacity="0.2"/>
        <circle cx="403.217" cy="377.674" r="2.5" transform="rotate(0.908963 403.217 377.674)" fill="#258AFF" fill-opacity="0.2"/>
        <circle cx="402.942" cy="601.897" r="2.5" transform="rotate(0.908963 402.942 601.897)" fill="#258AFF" fill-opacity="0.2"/>
        <circle cx="403.307" cy="427.674" r="2.5" transform="rotate(0.908963 403.307 427.674)" fill="#258AFF" fill-opacity="0.2"/>
        <circle cx="403.032" cy="651.897" r="2.5" transform="rotate(0.908963 403.032 651.897)" fill="#258AFF" fill-opacity="0.2"/>
        <circle cx="403.398" cy="477.674" r="2.5" transform="rotate(0.908963 403.398 477.674)" fill="#258AFF" fill-opacity="0.2"/>
        <circle cx="403.123" cy="701.897" r="2.5" transform="rotate(0.908963 403.123 701.897)" fill="#258AFF" fill-opacity="0.2"/>
        <circle cx="427.539" cy="2.62977" r="2.5" transform="rotate(0.908963 427.539 2.62977)" fill="#258AFF" fill-opacity="0.2"/>
        <circle cx="427.629" cy="52.6297" r="2.5" transform="rotate(0.908963 427.629 52.6297)" fill="#258AFF" fill-opacity="0.2"/>
        <circle cx="427.719" cy="102.63" r="2.5" transform="rotate(0.908963 427.719 102.63)" fill="#258AFF" fill-opacity="0.2"/>
        <circle cx="427.81" cy="152.63" r="2.5" transform="rotate(0.908963 427.81 152.63)" fill="#258AFF" fill-opacity="0.2"/>
        <circle cx="427.9" cy="202.629" r="2.5" transform="rotate(0.908963 427.9 202.629)" fill="#258AFF" fill-opacity="0.2"/>
        <circle cx="427.991" cy="252.629" r="2.5" transform="rotate(0.908963 427.991 252.629)" fill="#258AFF" fill-opacity="0.2"/>
        <circle cx="428.081" cy="302.629" r="2.5" transform="rotate(0.908963 428.081 302.629)" fill="#258AFF" fill-opacity="0.2"/>
        <circle cx="427.806" cy="526.852" r="2.5" transform="rotate(0.908963 427.806 526.852)" fill="#258AFF" fill-opacity="0.2"/>
        <circle cx="428.171" cy="352.629" r="2.5" transform="rotate(0.908963 428.171 352.629)" fill="#258AFF" fill-opacity="0.2"/>
        <circle cx="427.897" cy="576.852" r="2.5" transform="rotate(0.908963 427.897 576.852)" fill="#258AFF" fill-opacity="0.2"/>
        <circle cx="428.262" cy="402.629" r="2.5" transform="rotate(0.908963 428.262 402.629)" fill="#258AFF" fill-opacity="0.2"/>
        <circle cx="427.987" cy="626.852" r="2.5" transform="rotate(0.908963 427.987 626.852)" fill="#258AFF" fill-opacity="0.2"/>
        <circle cx="428.352" cy="452.629" r="2.5" transform="rotate(0.908963 428.352 452.629)" fill="#258AFF" fill-opacity="0.2"/>
        <circle cx="428.077" cy="676.852" r="2.5" transform="rotate(0.908963 428.077 676.852)" fill="#258AFF" fill-opacity="0.2"/>
        <circle cx="427.584" cy="27.6297" r="2.5" transform="rotate(0.908963 427.584 27.6297)" fill="#258AFF" fill-opacity="0.2"/>
        <circle cx="427.674" cy="77.6296" r="2.5" transform="rotate(0.908963 427.674 77.6296)" fill="#258AFF" fill-opacity="0.2"/>
        <circle cx="427.765" cy="127.63" r="2.5" transform="rotate(0.908963 427.765 127.63)" fill="#258AFF" fill-opacity="0.2"/>
        <circle cx="427.855" cy="177.629" r="2.5" transform="rotate(0.908963 427.855 177.629)" fill="#258AFF" fill-opacity="0.2"/>
        <circle cx="427.946" cy="227.629" r="2.5" transform="rotate(0.908963 427.946 227.629)" fill="#258AFF" fill-opacity="0.2"/>
        <circle cx="428.036" cy="277.629" r="2.5" transform="rotate(0.908963 428.036 277.629)" fill="#258AFF" fill-opacity="0.2"/>
        <circle cx="427.761" cy="501.852" r="2.5" transform="rotate(0.908963 427.761 501.852)" fill="#258AFF" fill-opacity="0.2"/>
        <circle cx="428.126" cy="327.629" r="2.5" transform="rotate(0.908963 428.126 327.629)" fill="#258AFF" fill-opacity="0.2"/>
        <circle cx="427.852" cy="551.852" r="2.5" transform="rotate(0.908963 427.852 551.852)" fill="#258AFF" fill-opacity="0.2"/>
        <circle cx="428.217" cy="377.629" r="2.5" transform="rotate(0.908963 428.217 377.629)" fill="#258AFF" fill-opacity="0.2"/>
        <circle cx="427.942" cy="601.852" r="2.5" transform="rotate(0.908963 427.942 601.852)" fill="#258AFF" fill-opacity="0.2"/>
        <circle cx="428.307" cy="427.629" r="2.5" transform="rotate(0.908963 428.307 427.629)" fill="#258AFF" fill-opacity="0.2"/>
        <circle cx="428.032" cy="651.852" r="2.5" transform="rotate(0.908963 428.032 651.852)" fill="#258AFF" fill-opacity="0.2"/>
        <circle cx="428.397" cy="477.629" r="2.5" transform="rotate(0.908963 428.397 477.629)" fill="#258AFF" fill-opacity="0.2"/>
        <circle cx="428.123" cy="701.852" r="2.5" transform="rotate(0.908963 428.123 701.852)" fill="#258AFF" fill-opacity="0.2"/>
        <circle cx="452.539" cy="2.58454" r="2.5" transform="rotate(0.908963 452.539 2.58454)" fill="#258AFF" fill-opacity="0.2"/>
        <circle cx="452.629" cy="52.5845" r="2.5" transform="rotate(0.908963 452.629 52.5845)" fill="#258AFF" fill-opacity="0.2"/>
        <circle cx="452.719" cy="102.584" r="2.5" transform="rotate(0.908963 452.719 102.584)" fill="#258AFF" fill-opacity="0.2"/>
        <circle cx="452.81" cy="152.584" r="2.5" transform="rotate(0.908963 452.81 152.584)" fill="#258AFF" fill-opacity="0.2"/>
        <circle cx="452.9" cy="202.584" r="2.5" transform="rotate(0.908963 452.9 202.584)" fill="#258AFF" fill-opacity="0.2"/>
        <circle cx="452.991" cy="252.584" r="2.5" transform="rotate(0.908963 452.991 252.584)" fill="#258AFF" fill-opacity="0.2"/>
        <circle cx="453.081" cy="302.584" r="2.5" transform="rotate(0.908963 453.081 302.584)" fill="#258AFF" fill-opacity="0.2"/>
        <circle cx="452.806" cy="526.807" r="2.5" transform="rotate(0.908963 452.806 526.807)" fill="#258AFF" fill-opacity="0.2"/>
        <circle cx="453.171" cy="352.584" r="2.5" transform="rotate(0.908963 453.171 352.584)" fill="#258AFF" fill-opacity="0.2"/>
        <circle cx="452.897" cy="576.807" r="2.5" transform="rotate(0.908963 452.897 576.807)" fill="#258AFF" fill-opacity="0.2"/>
        <circle cx="453.262" cy="402.584" r="2.5" transform="rotate(0.908963 453.262 402.584)" fill="#258AFF" fill-opacity="0.2"/>
        <circle cx="452.987" cy="626.807" r="2.5" transform="rotate(0.908963 452.987 626.807)" fill="#258AFF" fill-opacity="0.2"/>
        <circle cx="453.352" cy="452.584" r="2.5" transform="rotate(0.908963 453.352 452.584)" fill="#258AFF" fill-opacity="0.2"/>
        <circle cx="453.077" cy="676.806" r="2.5" transform="rotate(0.908963 453.077 676.806)" fill="#258AFF" fill-opacity="0.2"/>
        <circle cx="452.584" cy="27.5845" r="2.5" transform="rotate(0.908963 452.584 27.5845)" fill="#258AFF" fill-opacity="0.2"/>
        <circle cx="452.674" cy="77.5844" r="2.5" transform="rotate(0.908963 452.674 77.5844)" fill="#258AFF" fill-opacity="0.2"/>
        <circle cx="452.765" cy="127.584" r="2.5" transform="rotate(0.908963 452.765 127.584)" fill="#258AFF" fill-opacity="0.2"/>
        <circle cx="452.855" cy="177.584" r="2.5" transform="rotate(0.908963 452.855 177.584)" fill="#258AFF" fill-opacity="0.2"/>
        <circle cx="452.945" cy="227.584" r="2.5" transform="rotate(0.908963 452.945 227.584)" fill="#258AFF" fill-opacity="0.2"/>
        <circle cx="453.036" cy="277.584" r="2.5" transform="rotate(0.908963 453.036 277.584)" fill="#258AFF" fill-opacity="0.2"/>
        <circle cx="452.761" cy="501.807" r="2.5" transform="rotate(0.908963 452.761 501.807)" fill="#258AFF" fill-opacity="0.2"/>
        <circle cx="453.126" cy="327.584" r="2.5" transform="rotate(0.908963 453.126 327.584)" fill="#258AFF" fill-opacity="0.2"/>
        <circle cx="452.851" cy="551.807" r="2.5" transform="rotate(0.908963 452.851 551.807)" fill="#258AFF" fill-opacity="0.2"/>
        <circle cx="453.217" cy="377.584" r="2.5" transform="rotate(0.908963 453.217 377.584)" fill="#258AFF" fill-opacity="0.2"/>
        <circle cx="452.942" cy="601.807" r="2.5" transform="rotate(0.908963 452.942 601.807)" fill="#258AFF" fill-opacity="0.2"/>
        <circle cx="453.307" cy="427.584" r="2.5" transform="rotate(0.908963 453.307 427.584)" fill="#258AFF" fill-opacity="0.2"/>
        <circle cx="453.032" cy="651.807" r="2.5" transform="rotate(0.908963 453.032 651.807)" fill="#258AFF" fill-opacity="0.2"/>
        <circle cx="453.397" cy="477.584" r="2.5" transform="rotate(0.908963 453.397 477.584)" fill="#258AFF" fill-opacity="0.2"/>
        <circle cx="453.123" cy="701.806" r="2.5" transform="rotate(0.908963 453.123 701.806)" fill="#258AFF" fill-opacity="0.2"/>
        <circle cx="477.539" cy="2.53934" r="2.5" transform="rotate(0.908963 477.539 2.53934)" fill="#258AFF" fill-opacity="0.2"/>
        <circle cx="477.629" cy="52.5393" r="2.5" transform="rotate(0.908963 477.629 52.5393)" fill="#258AFF" fill-opacity="0.2"/>
        <circle cx="477.719" cy="102.539" r="2.5" transform="rotate(0.908963 477.719 102.539)" fill="#258AFF" fill-opacity="0.2"/>
        <circle cx="477.81" cy="152.539" r="2.5" transform="rotate(0.908963 477.81 152.539)" fill="#258AFF" fill-opacity="0.2"/>
        <circle cx="477.9" cy="202.539" r="2.5" transform="rotate(0.908963 477.9 202.539)" fill="#258AFF" fill-opacity="0.2"/>
        <circle cx="477.991" cy="252.539" r="2.5" transform="rotate(0.908963 477.991 252.539)" fill="#258AFF" fill-opacity="0.2"/>
        <circle cx="478.081" cy="302.539" r="2.5" transform="rotate(0.908963 478.081 302.539)" fill="#258AFF" fill-opacity="0.2"/>
        <circle cx="477.806" cy="526.762" r="2.5" transform="rotate(0.908963 477.806 526.762)" fill="#258AFF" fill-opacity="0.2"/>
        <circle cx="478.171" cy="352.539" r="2.5" transform="rotate(0.908963 478.171 352.539)" fill="#258AFF" fill-opacity="0.2"/>
        <circle cx="477.897" cy="576.762" r="2.5" transform="rotate(0.908963 477.897 576.762)" fill="#258AFF" fill-opacity="0.2"/>
        <circle cx="478.262" cy="402.539" r="2.5" transform="rotate(0.908963 478.262 402.539)" fill="#258AFF" fill-opacity="0.2"/>
        <circle cx="477.987" cy="626.762" r="2.5" transform="rotate(0.908963 477.987 626.762)" fill="#258AFF" fill-opacity="0.2"/>
        <circle cx="478.352" cy="452.539" r="2.5" transform="rotate(0.908963 478.352 452.539)" fill="#258AFF" fill-opacity="0.2"/>
        <circle cx="478.077" cy="676.761" r="2.5" transform="rotate(0.908963 478.077 676.761)" fill="#258AFF" fill-opacity="0.2"/>
        <circle cx="477.584" cy="27.5393" r="2.5" transform="rotate(0.908963 477.584 27.5393)" fill="#258AFF" fill-opacity="0.2"/>
        <circle cx="477.674" cy="77.5392" r="2.5" transform="rotate(0.908963 477.674 77.5392)" fill="#258AFF" fill-opacity="0.2"/>
        <circle cx="477.765" cy="127.539" r="2.5" transform="rotate(0.908963 477.765 127.539)" fill="#258AFF" fill-opacity="0.2"/>
        <circle cx="477.855" cy="177.539" r="2.5" transform="rotate(0.908963 477.855 177.539)" fill="#258AFF" fill-opacity="0.2"/>
        <circle cx="477.945" cy="227.539" r="2.5" transform="rotate(0.908963 477.945 227.539)" fill="#258AFF" fill-opacity="0.2"/>
        <circle cx="478.036" cy="277.539" r="2.5" transform="rotate(0.908963 478.036 277.539)" fill="#258AFF" fill-opacity="0.2"/>
        <circle cx="477.761" cy="501.762" r="2.5" transform="rotate(0.908963 477.761 501.762)" fill="#258AFF" fill-opacity="0.2"/>
        <circle cx="478.126" cy="327.539" r="2.5" transform="rotate(0.908963 478.126 327.539)" fill="#258AFF" fill-opacity="0.2"/>
        <circle cx="477.851" cy="551.762" r="2.5" transform="rotate(0.908963 477.851 551.762)" fill="#258AFF" fill-opacity="0.2"/>
        <circle cx="478.217" cy="377.539" r="2.5" transform="rotate(0.908963 478.217 377.539)" fill="#258AFF" fill-opacity="0.2"/>
        <circle cx="477.942" cy="601.762" r="2.5" transform="rotate(0.908963 477.942 601.762)" fill="#258AFF" fill-opacity="0.2"/>
        <circle cx="478.307" cy="427.539" r="2.5" transform="rotate(0.908963 478.307 427.539)" fill="#258AFF" fill-opacity="0.2"/>
        <circle cx="478.032" cy="651.762" r="2.5" transform="rotate(0.908963 478.032 651.762)" fill="#258AFF" fill-opacity="0.2"/>
        <circle cx="478.397" cy="477.539" r="2.5" transform="rotate(0.908963 478.397 477.539)" fill="#258AFF" fill-opacity="0.2"/>
        <circle cx="478.123" cy="701.761" r="2.5" transform="rotate(0.908963 478.123 701.761)" fill="#258AFF" fill-opacity="0.2"/>
        </svg>
